<svg height="300px" width="300px" fill="#1A1A1A" xmlns="http://www.w3.org/2000/svg" xmlns:xlink="http://www.w3.org/1999/xlink" version="1.1" x="0px" y="0px" viewBox="0 0 100 100" enable-background="new 0 0 100 100" xml:space="preserve"><path d="M52.3,49.1c11.3-1.5,20.2-14.3,20.2-29.8v-3h-45v3h0c0,15.5,8.9,28.3,20.2,29.8c0.5,0.1,0.8,0.4,0.8,0.9  c0,0.5-0.4,0.8-0.8,0.9c-11.3,1.5-20.2,14.3-20.2,29.8v3h45v-3h0c0-15.5-8.8-28.3-20.2-29.8c-0.5-0.1-0.8-0.4-0.8-0.9v0  C51.5,49.5,51.9,49.1,52.3,49.1z M49.2,78.2c0,0.3-0.2,0.6-0.5,0.7c-1.9,0.7-5.2,1.8-5.5,1.8H30.5c0-14.6,8.3-26.4,18.8-27V78.2z   M69.5,80.8H56.8l-5.5-1.8c-0.3-0.1-0.5-0.4-0.5-0.7V53.8C61.2,54.3,69.5,66.2,69.5,80.8z M45.6,23.3l-14.4-1.6  c-0.3,0-0.6-0.3-0.6-0.6c0-0.6,0-1.2,0-1.8h39c0,0.5,0,1,0,1.5c0,0.5-0.4,0.9-0.9,0.9l-14.2,1.6C51.5,23.6,48.5,23.6,45.6,23.3z"/></svg>