<?xml version="1.0" standalone="no"?>
<!DOCTYPE svg PUBLIC "-//W3C//DTD SVG 20010904//EN"
 "http://www.w3.org/TR/2001/REC-SVG-20010904/DTD/svg10.dtd">
<svg version="1.0" xmlns="http://www.w3.org/2000/svg"
 width="512.000000pt" height="512.000000pt" viewBox="0 0 512.000000 512.000000"
 preserveAspectRatio="xMidYMid meet">
<metadata>
Created by potrace 1.11, written by Peter Selinger 2001-2013
</metadata>
<g transform="translate(0.000000,512.000000) scale(0.100000,-0.100000)"
fill="#000000" stroke="none">
<path d="M2388 5079 c-13 -7 -18 -23 -18 -54 0 -50 10 -61 40 -45 17 9 21 19
18 57 -3 49 -12 59 -40 42z"/>
<path d="M2632 5080 c-35 -15 -48 -54 -28 -85 19 -29 25 -30 71 -11 47 20 65
59 40 86 -19 21 -46 24 -83 10z"/>
<path d="M2936 5073 c-4 -4 -13 -8 -18 -8 -12 0 -36 -57 -37 -87 -1 -13 5 -17
22 -14 12 3 25 5 29 5 8 1 22 85 16 101 -2 6 -7 8 -12 3z"/>
<path d="M2128 5043 c-13 -3 -18 -15 -18 -41 0 -47 10 -63 37 -56 23 6 32 35
23 73 -6 26 -15 31 -42 24z"/>
<path d="M3154 4988 c-8 -15 -14 -39 -14 -53 0 -23 3 -25 23 -20 32 10 35 15
43 62 6 39 5 42 -16 40 -13 -1 -28 -13 -36 -29z"/>
<path d="M1868 4983 c-22 -6 -23 -35 -2 -79 13 -27 19 -32 30 -23 8 6 14 8 14
3 0 -5 4 -3 9 5 10 16 -9 93 -24 97 -6 1 -18 0 -27 -3z"/>
<path d="M3420 4930 c-25 -25 -43 -68 -36 -86 9 -25 48 -2 67 40 10 23 19 47
19 54 0 19 -28 14 -50 -8z"/>
<path d="M1636 4901 c-5 -7 -14 -10 -22 -7 -10 4 -12 -2 -7 -27 12 -65 31 -81
65 -54 15 11 15 16 -6 56 -15 29 -26 40 -30 32z"/>
<path d="M2341 4827 c-36 -7 -39 -10 -27 -22 15 -15 53 -112 101 -252 l27 -82
-51 -133 c-71 -182 -69 -168 -33 -168 42 0 66 25 92 98 15 41 26 60 33 53 5
-5 19 -40 31 -77 18 -55 27 -70 46 -74 35 -8 90 0 90 14 0 7 -21 68 -47 137
-66 177 -64 208 29 412 32 70 57 87 59 40 3 -67 1 -181 -6 -363 -4 -107 -7
-203 -7 -213 1 -26 20 -46 40 -42 9 2 27 4 40 4 16 1 22 7 22 25 0 14 4 27 8
30 4 2 6 -11 4 -30 -3 -28 -1 -34 14 -35 11 0 28 -2 38 -4 55 -10 62 12 102
335 24 192 39 265 60 298 12 18 12 23 2 27 -24 8 -102 15 -258 21 -170 6 -185
3 -194 -49 -8 -44 -36 -126 -46 -132 -11 -7 -38 85 -43 145 l-4 45 -40 0 c-23
0 -59 -4 -82 -8z m514 -120 c-12 -137 -15 -162 -20 -195 -3 -18 -7 -52 -10
-75 -3 -23 -12 -80 -20 -127 l-14 -85 5 130 c3 72 7 150 9 175 2 25 7 77 10
115 9 118 18 151 37 139 6 -4 8 -32 3 -77z"/>
<path d="M3642 4798 c-28 -43 -26 -52 11 -43 16 4 32 20 41 40 20 42 20 44 -5
42 -13 -1 -32 -17 -47 -39z"/>
<path d="M1375 4788 c-42 -24 -47 -63 -12 -95 21 -20 24 -20 59 -6 52 21 67
72 30 101 -20 15 -50 15 -77 0z"/>
<path d="M3870 4717 c-33 -16 -38 -59 -11 -86 17 -17 25 -19 48 -10 37 13 52
35 45 62 -11 48 -35 58 -82 34z"/>
<path d="M1720 4671 c-34 -11 -135 -58 -187 -88 -34 -20 -41 -28 -34 -41 5
-10 12 -35 15 -57 3 -22 9 -57 12 -78 l6 -39 -24 16 c-26 17 -90 89 -98 111
-4 11 -15 9 -55 -8 -27 -12 -60 -28 -73 -35 l-23 -13 38 -26 c58 -39 163 -125
214 -176 42 -41 48 -53 58 -113 15 -86 22 -146 23 -205 1 -46 2 -47 27 -38 14
5 36 17 49 27 l22 17 -17 77 c-9 43 -14 81 -10 84 8 8 80 -60 97 -91 10 -19
18 -23 41 -18 28 5 29 4 30 -33 0 -22 2 -127 4 -234 2 -107 8 -207 14 -222 6
-15 57 -96 114 -180 57 -84 166 -249 242 -366 l138 -213 -23 -49 c-24 -52 -27
-69 -29 -165 l-1 -60 -157 -125 c-210 -167 -283 -230 -283 -240 0 -14 141
-153 200 -198 31 -23 72 -48 91 -56 33 -14 37 -13 61 7 15 12 81 119 148 237
137 242 143 251 164 230 8 -8 44 -134 81 -280 36 -145 67 -266 69 -267 5 -6
117 26 177 50 91 37 217 107 223 124 8 19 3 26 -170 267 l-152 210 20 45 c25
58 32 124 20 177 -6 28 -6 47 2 61 6 11 61 73 121 138 61 65 125 134 144 154
18 20 87 92 151 161 64 69 133 141 151 161 90 97 263 281 318 339 58 62 88
111 264 440 126 235 228 444 225 463 -2 17 -9 21 -27 19 -26 -3 -41 -18 -70
-72 -22 -42 -223 -230 -441 -414 -60 -50 -62 -50 -30 5 74 125 197 313 227
345 l31 35 -39 25 c-62 39 -78 29 -150 -94 -34 -59 -111 -185 -171 -281 -102
-162 -108 -174 -93 -191 15 -16 12 -23 -39 -99 -64 -93 -553 -750 -664 -891
-82 -104 -109 -130 -129 -123 -13 5 -56 131 -157 468 -122 406 -125 414 -170
459 -23 23 -52 50 -66 61 -61 48 -260 217 -260 221 0 2 23 15 50 29 44 22 65
45 42 45 -4 0 -13 12 -19 28 -43 98 -65 146 -98 217 -64 136 -125 287 -127
311 -1 13 -5 24 -8 23 -3 0 -16 -4 -30 -8z m-1 -231 c89 -179 174 -370 168
-377 -14 -14 -221 165 -245 212 -10 21 -27 104 -37 182 -23 191 13 185 114
-17z m825 -1870 c-14 -14 -39 14 -29 31 5 8 12 6 23 -5 11 -11 13 -19 6 -26z"/>
<path d="M1164 4641 c4 -5 -3 -7 -14 -4 -19 5 -19 4 -5 -24 17 -34 55 -72 55
-55 0 6 7 9 15 6 24 -10 18 21 -11 55 -23 28 -54 44 -40 22z"/>
<path d="M925 4479 c-7 -10 13 -40 43 -65 15 -14 52 -7 52 10 0 6 -11 24 -25
39 -26 28 -59 35 -70 16z"/>
<path d="M4333 4402 c-27 -4 -83 -57 -83 -78 0 -23 39 -8 79 31 37 36 38 52 4
47z"/>
<path d="M738 4313 c-23 -6 -23 -15 3 -47 30 -38 53 -48 74 -32 16 12 15 15
-15 49 -18 20 -35 36 -39 36 -3 -1 -14 -3 -23 -6z"/>
<path d="M4462 4188 c-39 -32 -54 -58 -32 -58 39 0 110 53 110 82 0 18 -41 6
-78 -24z"/>
<path d="M557 4111 c-16 -6 -14 -11 19 -44 21 -21 44 -35 52 -32 7 3 18 5 23
5 20 0 7 28 -23 54 -33 27 -41 29 -71 17z"/>
<path d="M4652 4000 c-47 -19 -91 -56 -83 -69 11 -18 69 1 105 34 42 39 31 56
-22 35z"/>
<path d="M435 3916 c-54 -23 -62 -78 -16 -112 19 -14 62 -1 87 27 14 15 16 25
8 46 -14 40 -43 54 -79 39z"/>
<path d="M694 3876 c-33 -33 -43 -56 -25 -56 12 0 90 -82 115 -122 l20 -31
-24 6 c-14 4 -49 12 -78 19 -38 8 -56 18 -61 32 -5 13 -10 16 -15 8 -4 -7 -11
-10 -15 -7 -11 6 -30 -17 -69 -81 l-30 -52 58 3 c33 2 74 0 92 -5 18 -5 47
-12 63 -14 17 -3 62 -15 100 -26 63 -17 76 -26 131 -85 56 -58 117 -140 126
-167 6 -18 42 1 65 34 l23 32 -33 31 c-38 34 -92 104 -86 109 2 2 37 -6 78
-19 88 -28 107 -23 139 34 13 22 22 41 20 41 -3 0 -185 35 -236 46 -89 18
-172 93 -263 234 -24 38 -48 69 -52 69 -5 1 -24 -14 -43 -33z"/>
<path d="M4730 3784 c-61 -52 -16 -119 59 -88 19 8 37 17 40 19 11 11 3 64
-12 79 -23 23 -51 20 -87 -10z"/>
<path d="M4474 3742 c-21 -16 -154 -95 -294 -176 -140 -82 -257 -150 -259
-152 -8 -7 41 -64 56 -64 8 0 74 35 147 78 296 177 383 222 430 222 19 0 37 4
40 8 7 12 -54 112 -68 112 -7 0 -31 -13 -52 -28z"/>
<path d="M290 3669 c0 -6 -7 -9 -15 -5 -20 7 -19 -7 3 -27 30 -27 69 -38 99
-26 l26 10 -21 15 c-37 26 -92 46 -92 33z"/>
<path d="M4590 3632 c-8 -3 -29 -17 -47 -33 -31 -26 -142 -87 -408 -223 -71
-37 -134 -71 -138 -75 -10 -10 19 -71 34 -71 6 0 128 58 272 128 144 70 283
137 309 148 27 10 48 25 48 32 0 15 -37 89 -47 95 -5 2 -15 2 -23 -1z"/>
<path d="M4889 3530 c-36 -11 -80 -41 -74 -50 6 -10 49 1 92 24 59 30 47 46
-18 26z"/>
<path d="M166 3411 c-9 -13 42 -42 75 -43 46 -2 57 17 21 36 -34 17 -88 21
-96 7z"/>
<path d="M4977 3289 c-46 -11 -77 -26 -77 -39 0 -18 83 -4 120 20 25 16 -2 28
-43 19z"/>
<path d="M102 3161 c-22 -13 13 -34 58 -34 49 0 61 10 36 29 -22 15 -73 18
-94 5z"/>
<path d="M4993 3017 c-53 -20 -51 -30 5 -23 61 8 82 15 82 27 0 12 -48 10 -87
-4z"/>
<path d="M50 2899 c-20 -8 -22 -12 -10 -19 19 -12 91 -13 109 -1 39 25 -44 42
-99 20z"/>
<path d="M300 2878 c0 -11 -5 -15 -15 -12 -16 6 -16 4 -19 -61 -1 -37 1 -39
29 -41 29 -1 92 -29 143 -62 l24 -15 -29 -16 c-15 -8 -58 -16 -97 -17 -45 -1
-72 -7 -77 -16 -5 -7 -9 -75 -9 -152 l0 -138 33 6 c17 4 39 9 47 10 21 5 216
15 395 22 237 8 226 3 223 105 -1 43 -4 83 -7 87 -3 5 -37 21 -76 37 -117 48
-118 49 -23 74 111 29 112 30 116 85 3 51 4 50 -35 35 -39 -15 -183 -59 -213
-64 -14 -3 -40 -9 -58 -14 -32 -10 -55 -6 -107 19 -11 5 -63 29 -116 53 -53
24 -103 55 -112 68 -13 18 -17 20 -17 7z m395 -277 c22 -10 69 -30 105 -45 74
-31 104 -51 97 -63 -7 -11 -114 -16 -374 -17 -171 -1 -205 2 -218 15 -14 14
-14 17 2 31 27 24 294 108 323 102 13 -3 42 -13 65 -23z"/>
<path d="M5018 2758 c-30 -10 -38 -28 -12 -28 29 0 104 22 104 31 0 12 -58 10
-92 -3z"/>
<path d="M4839 2726 c-11 -11 -106 -17 -354 -22 -148 -3 -280 -7 -292 -10 -20
-4 -23 -11 -23 -49 0 -42 1 -44 28 -39 31 6 360 8 535 4 64 -2 120 0 124 3 17
18 0 130 -18 113z"/>
<path d="M49 2689 c-38 -14 -54 -55 -34 -85 17 -27 36 -29 84 -13 45 16 53 55
17 86 -30 25 -30 25 -67 12z"/>
<path d="M4193 2552 c-19 -3 -23 -10 -23 -43 l0 -39 58 -1 c236 -3 533 -16
568 -25 28 -7 33 -39 7 -46 -34 -9 -340 6 -543 27 -75 7 -102 -6 -102 -49 0
-40 -25 -35 232 -51 91 -6 111 -8 228 -20 146 -15 168 -17 174 -21 20 -12 57
10 63 37 9 40 10 218 1 226 -7 7 -618 11 -663 5z m657 -127 c0 -8 -4 -15 -10
-15 -5 0 -7 7 -4 15 4 8 8 15 10 15 2 0 4 -7 4 -15z"/>
<path d="M5023 2538 c-37 -18 -39 -69 -3 -88 28 -15 87 8 95 38 12 48 -39 76
-92 50z"/>
<path d="M35 2383 c-34 -8 -38 -20 -8 -25 38 -5 115 11 108 23 -6 9 -64 11
-100 2z"/>
<path d="M5001 2250 c-42 -10 -37 -30 6 -29 50 1 94 14 73 22 -30 11 -56 13
-79 7z"/>
<path d="M63 2129 c-18 -5 -33 -13 -33 -18 0 -25 119 -10 128 17 4 14 -46 15
-95 1z"/>
<path d="M925 2018 c-109 -46 -318 -124 -445 -164 -63 -21 -116 -38 -118 -40
-5 -4 114 -267 166 -366 29 -57 51 -88 62 -88 9 0 36 10 60 21 87 42 250 94
250 79 0 -5 -52 -57 -115 -117 -63 -59 -115 -111 -115 -114 0 -15 64 -92 68
-81 2 7 7 10 12 7 4 -3 24 14 43 38 47 56 56 67 173 193 56 60 127 136 158
169 56 60 67 78 44 70 -7 -2 -121 -38 -253 -81 -346 -111 -333 -107 -315 -90
8 8 112 69 230 135 290 162 300 168 300 186 0 9 -22 64 -50 122 -27 58 -50
109 -50 113 0 4 -8 14 -17 23 -17 14 -24 13 -88 -15z m75 -81 c0 -19 -79 -57
-354 -172 -88 -36 -166 -65 -174 -63 -32 6 -21 26 24 48 45 21 462 187 502
199 1 1 2 -5 2 -12z m50 -116 c0 -15 -76 -58 -347 -196 -149 -76 -188 -86
-181 -48 3 19 116 80 328 175 180 82 200 89 200 69z m-546 -267 c3 -8 2 -12
-4 -9 -6 3 -10 10 -10 16 0 14 7 11 14 -7z"/>
<path d="M4920 1991 c-12 -8 -10 -12 10 -19 24 -9 78 -8 87 2 20 20 -69 35
-97 17z"/>
<path d="M4049 1923 c-17 -4 -57 -68 -49 -77 3 -2 59 -32 125 -66 227 -118
394 -212 415 -235 71 -76 -45 -26 -328 142 -41 24 -75 43 -77 43 -2 0 -31 18
-65 41 -71 47 -100 47 -124 -3 -9 -17 -15 -32 -14 -34 2 -1 55 -32 118 -69
150 -87 324 -195 378 -234 38 -28 56 -61 33 -61 -18 0 -378 228 -489 310 -35
26 -69 16 -94 -27 l-16 -28 223 -148 c222 -148 305 -210 305 -228 0 -27 -117
45 -393 243 -136 98 -139 99 -163 83 -23 -15 -52 -61 -43 -68 2 -2 49 -34 104
-72 164 -112 362 -263 388 -297 24 -30 26 -31 49 -16 13 9 47 49 75 89 65 95
239 388 247 416 6 19 3 21 -27 20 -32 -1 -75 18 -257 116 -123 66 -254 139
-275 153 -11 8 -22 13 -25 13 -3 -1 -12 -3 -21 -6z"/>
<path d="M155 1883 c-26 -7 -67 -34 -61 -41 8 -8 116 29 116 39 0 9 -21 10
-55 2z"/>
<path d="M4858 1752 c-36 -8 -20 -23 45 -42 15 -5 27 -5 27 0 0 5 7 7 15 4 31
-12 14 14 -17 27 -38 16 -46 17 -70 11z"/>
<path d="M243 1641 c-75 -29 -88 -62 -16 -41 49 15 80 37 67 49 -5 5 -26 2
-51 -8z"/>
<path d="M4751 1511 c-11 -7 -6 -13 20 -26 21 -11 34 -14 37 -7 2 6 11 9 20 6
12 -4 9 1 -7 15 -25 22 -47 26 -70 12z"/>
<path d="M308 1424 c-18 -9 -28 -23 -28 -38 0 -26 28 -56 53 -56 19 0 67 21
68 29 0 3 2 16 5 28 8 46 -45 66 -98 37z"/>
<path d="M4629 1291 c-21 -17 -22 -21 -10 -49 10 -24 19 -31 37 -30 15 2 24 9
24 19 0 9 9 28 20 41 10 14 16 28 13 32 -13 13 -61 5 -84 -13z"/>
<path d="M1407 1208 c-162 -211 -317 -419 -317 -428 0 -5 15 -20 33 -34 46
-35 69 -26 118 48 78 113 153 220 229 326 42 58 80 111 84 118 12 20 -23 52
-55 52 -23 0 -39 -14 -92 -82z"/>
<path d="M1580 1231 c0 -6 -5 -10 -11 -8 -13 2 -28 -18 -204 -278 -70 -104
-139 -204 -152 -222 l-24 -31 44 -26 c25 -15 52 -24 60 -20 9 3 28 27 43 52
36 62 166 260 224 342 25 36 58 86 73 111 l27 45 -40 23 c-22 12 -40 17 -40
12z"/>
<path d="M485 1184 c-35 -18 -61 -41 -54 -49 8 -7 92 38 97 53 5 16 -7 15 -43
-4z"/>
<path d="M3340 1121 c0 -7 -6 -11 -14 -8 -14 6 -15 10 84 -398 29 -121 57
-224 60 -228 9 -10 49 0 73 18 17 12 17 16 4 42 -8 15 -21 55 -30 88 -9 33
-23 87 -32 119 -8 32 -14 61 -11 63 12 12 186 -197 186 -223 0 -8 7 -14 16
-14 20 0 134 68 134 80 0 5 -6 7 -13 4 -18 -7 -82 57 -267 266 -119 135 -190
206 -190 191z"/>
<path d="M4499 1084 c-1 -5 -1 -13 0 -18 1 -5 -5 -4 -13 4 -9 7 -16 8 -16 2 0
-16 31 -37 57 -37 12 -1 23 2 23 5 0 11 -50 54 -51 44z"/>
<path d="M1755 1070 c-22 -8 -395 -387 -423 -429 -15 -22 -15 -24 3 -37 31
-23 51 -16 91 33 21 26 49 58 62 72 81 88 105 112 108 108 2 -2 -3 -28 -12
-57 -9 -30 -18 -63 -20 -74 -8 -40 -46 -146 -55 -151 -19 -13 -7 -32 32 -52
67 -34 71 -29 112 135 21 81 57 215 82 297 25 82 44 153 43 156 -2 4 -12 3
-23 -1z"/>
<path d="M623 969 c-28 -18 -45 -49 -28 -49 14 0 62 30 79 49 19 21 19 21 0
21 -10 0 -34 -10 -51 -21z"/>
<path d="M2338 953 c-19 -5 -24 -18 -32 -83 -11 -87 -17 -135 -21 -165 -2 -16
-6 -57 -10 -90 -3 -33 -8 -71 -11 -85 -2 -14 -6 -45 -9 -70 -3 -25 -10 -70
-15 -99 -7 -35 -7 -58 0 -65 10 -10 138 -23 183 -18 30 4 43 21 50 72 7 52 49
214 57 223 6 7 20 -39 51 -178 6 -27 11 -67 11 -87 l-1 -37 61 4 c33 3 64 7
68 10 5 3 1 29 -9 58 -10 28 -30 104 -45 167 -15 63 -41 174 -58 245 -26 114
-48 175 -48 137 0 -6 -6 -9 -13 -7 -13 6 -17 -4 -101 -325 -57 -215 -71 -260
-82 -260 -8 0 2 178 21 345 19 178 28 281 26 303 -1 12 -38 14 -73 5z"/>
<path d="M4330 881 c0 -8 -6 -11 -15 -7 -34 13 3 -36 45 -59 13 -8 13 -7 1 8
-15 19 -1 23 17 5 6 -6 14 -9 17 -7 2 3 -11 21 -30 39 -19 19 -35 28 -35 21z
m15 -21 c3 -5 1 -10 -4 -10 -6 0 -11 5 -11 10 0 6 2 10 4 10 3 0 8 -4 11 -10z"/>
<path d="M825 794 c-39 -20 -65 -44 -65 -60 0 -20 61 9 84 40 25 33 18 39 -19
20z"/>
<path d="M4140 702 c0 -12 19 -26 26 -19 2 2 -2 10 -11 17 -9 8 -15 8 -15 2z"/>
<path d="M4116 685 c4 -8 11 -15 16 -15 6 0 5 6 -2 15 -7 8 -14 15 -16 15 -2
0 -1 -7 2 -15z"/>
<path d="M989 611 c-26 -26 -39 -61 -23 -61 14 0 51 24 66 44 41 49 4 64 -43
17z"/>
<path d="M3900 538 c0 -8 9 -23 19 -32 19 -17 19 -17 14 3 -7 27 -33 50 -33
29z"/>
<path d="M3932 530 c15 -24 33 -27 24 -4 -3 9 -6 18 -6 20 0 2 -7 4 -15 4 -13
0 -13 -3 -3 -20z"/>
<path d="M1181 476 c-30 -17 -37 -46 -11 -46 11 0 25 -9 33 -20 12 -17 18 -19
45 -9 25 9 32 17 32 38 0 15 -5 32 -12 39 -16 16 -57 15 -87 -2z"/>
<path d="M3710 422 c-42 -13 -60 -50 -41 -81 8 -12 16 -12 55 3 53 20 61 29
47 55 -11 20 -37 30 -61 23z"/>
<path d="M1457 359 c-23 -14 -50 -66 -37 -74 6 -3 10 -2 10 4 0 6 7 8 15 5 8
-4 15 -4 15 -1 0 2 7 21 15 41 16 37 12 43 -18 25z"/>
<path d="M3470 304 c0 -8 5 -12 10 -9 6 4 8 11 5 16 -9 14 -15 11 -15 -7z"/>
<path d="M3445 290 c3 -5 8 -10 11 -10 2 0 4 5 4 10 0 6 -5 10 -11 10 -5 0 -7
-4 -4 -10z"/>
<path d="M1694 260 c-21 -8 -44 -56 -44 -89 1 -14 2 -13 11 2 6 9 14 15 19 12
5 -3 18 12 30 34 21 43 17 53 -16 41z"/>
<path d="M3230 205 c0 -8 5 -15 10 -15 6 0 10 7 10 15 0 8 -4 15 -10 15 -5 0
-10 -7 -10 -15z"/>
<path d="M3205 201 c-3 -5 -1 -12 5 -16 5 -3 10 1 10 9 0 18 -6 21 -15 7z"/>
<path d="M1952 180 c-9 -21 -11 -22 -11 -5 -1 32 -19 4 -25 -40 l-6 -40 16 28
c18 33 24 34 18 5 -2 -13 3 -5 11 16 17 44 14 77 -3 36z"/>
<path d="M2178 137 c-12 -29 -10 -73 3 -60 6 6 9 26 7 44 -2 26 -5 30 -10 16z"/>
<path d="M2200 114 c0 -41 8 -41 16 -1 2 14 0 29 -6 32 -6 4 -10 -9 -10 -31z"/>
<path d="M2422 114 c-12 -8 -22 -21 -22 -29 0 -17 36 -38 50 -30 6 3 10 -1 10
-9 0 -19 10 -20 34 -3 20 15 27 45 14 70 -11 21 -56 22 -86 1z"/>
<path d="M2720 120 c0 -5 -7 -7 -15 -4 -12 5 -15 0 -13 -25 2 -33 17 -44 19
-13 0 10 3 12 6 4 2 -6 9 -10 14 -6 12 7 12 54 -1 54 -5 0 -10 -4 -10 -10z"/>
</g>
</svg>
