<?xml version="1.0" standalone="no"?>
<!DOCTYPE svg PUBLIC "-//W3C//DTD SVG 20010904//EN"
 "http://www.w3.org/TR/2001/REC-SVG-20010904/DTD/svg10.dtd">
<svg version="1.0" xmlns="http://www.w3.org/2000/svg"
 width="700.000000pt" height="700.000000pt" viewBox="0 0 700.000000 700.000000"
 preserveAspectRatio="xMidYMid meet">
<metadata>
Created by potrace 1.11, written by Peter Selinger 2001-2013
</metadata>
<g transform="translate(0.000000,700.000000) scale(0.100000,-0.100000)"
fill="#000000" stroke="none">
<path d="M185 5590 c4 -41 9 -82 10 -90 1 -8 6 -46 9 -85 4 -38 11 -104 16
-145 5 -41 12 -102 15 -135 3 -33 8 -67 10 -75 2 -8 6 -49 10 -90 3 -41 8 -88
10 -105 5 -33 11 -86 20 -180 3 -33 8 -74 10 -91 2 -17 7 -57 10 -90 5 -56 8
-79 20 -164 2 -19 7 -62 10 -95 3 -33 8 -78 11 -100 3 -22 7 -60 9 -85 1 -25
6 -61 9 -80 3 -19 8 -62 11 -95 3 -33 7 -78 10 -100 9 -75 15 -130 20 -185 3
-30 8 -69 10 -86 2 -17 7 -57 10 -90 4 -32 8 -70 10 -84 2 -14 6 -54 10 -90 4
-36 8 -76 10 -90 6 -40 18 -153 20 -175 2 -25 15 -150 20 -190 2 -16 7 -55 10
-85 3 -30 8 -71 10 -90 2 -19 6 -57 9 -85 3 -27 15 -133 26 -235 12 -102 23
-205 26 -230 2 -25 6 -61 9 -80 3 -19 7 -60 10 -90 3 -30 8 -71 10 -90 2 -19
7 -62 10 -95 3 -33 8 -72 11 -86 l5 -25 2869 0 c1579 0 2870 2 2871 5 0 3 2
13 4 21 1 8 6 46 9 83 4 37 9 77 11 87 2 10 7 59 10 107 4 48 8 90 10 93 2 3
6 39 10 80 4 41 9 89 11 105 2 17 6 57 9 90 4 33 8 67 10 75 2 8 7 53 11 100
3 47 8 87 10 90 1 3 5 42 9 85 3 44 8 87 11 95 2 8 6 40 9 70 3 30 7 71 10 90
2 19 7 64 10 100 4 36 8 76 10 90 2 14 7 54 10 90 4 36 9 79 11 95 2 17 6 59
10 95 3 35 7 71 9 80 2 8 6 51 10 95 4 44 9 89 11 100 2 11 7 47 10 80 3 33 7
71 9 84 3 13 7 61 11 105 3 45 8 84 10 87 1 3 6 43 10 90 3 46 8 87 10 90 2 4
6 37 9 75 3 38 8 85 10 104 3 19 7 55 10 80 2 25 7 65 10 90 3 25 8 65 10 90
5 48 13 122 20 180 3 19 7 60 10 90 4 30 8 69 10 85 2 17 6 57 10 90 3 33 8
76 10 95 3 19 7 58 10 85 3 28 7 68 9 90 3 22 8 67 11 100 3 33 8 71 10 85 9
57 17 160 12 160 -2 0 -26 -28 -53 -62 -26 -35 -51 -65 -54 -68 -3 -3 -21 -25
-40 -50 -19 -25 -37 -47 -40 -50 -3 -3 -39 -48 -79 -100 -41 -52 -79 -99 -85
-105 -6 -5 -24 -28 -40 -50 -17 -22 -33 -42 -36 -45 -3 -3 -57 -70 -120 -150
-63 -80 -122 -154 -132 -165 -9 -11 -63 -78 -120 -150 -56 -71 -105 -132 -108
-135 -3 -3 -84 -104 -180 -225 -96 -121 -177 -222 -180 -225 -3 -3 -75 -93
-160 -200 -85 -107 -157 -197 -160 -200 -3 -3 -37 -44 -75 -93 -38 -48 -72
-86 -77 -85 -4 2 -203 248 -443 548 -240 300 -442 553 -450 562 -8 10 -104
129 -212 265 -109 137 -202 253 -208 259 -5 6 -66 82 -134 168 -69 86 -127
156 -131 156 -4 0 -65 -73 -136 -162 -71 -90 -134 -169 -142 -176 -7 -8 -25
-30 -40 -50 -15 -21 -29 -39 -32 -42 -3 -3 -30 -36 -60 -75 -66 -84 -82 -104
-95 -119 -6 -6 -102 -126 -214 -266 -112 -140 -216 -271 -232 -291 -16 -20
-124 -155 -240 -300 -116 -145 -218 -273 -227 -284 -9 -11 -48 -59 -86 -107
-38 -49 -72 -88 -76 -88 -3 0 -136 163 -296 362 -159 200 -297 372 -306 383
-9 11 -256 319 -548 685 -292 366 -545 681 -561 700 l-30 35 6 -75z"/>
</g>
</svg>
