<svg height="30px" width="30px" fill="white" xmlns="http://www.w3.org/2000/svg" xmlns:xlink="http://www.w3.org/1999/xlink" version="1.1" x="0px" y="0px" viewBox="0 0 100 100" enable-background="new 0 0 100 100" xml:space="preserve"><path d="M52.3,49.1c11.3-1.5,20.2-14.3,20.2-29.8v-3h-45v3h0c0,15.5,8.9,28.3,20.2,29.8c0.5,0.1,0.8,0.4,0.8,0.9  c0,0.3-0.2,0.6-0.4,0.8c0,0-0.1,0.1-0.2,0.1c-0.1,0-0.2,0.1-0.2,0.1c-11.3,1.5-20.2,14.3-20.2,29.8v3h45v-3h0  c0-15.5-8.8-28.3-20.2-29.8c-0.1,0-0.2,0-0.2-0.1c-0.1,0-0.1-0.1-0.2-0.1c-0.2-0.2-0.4-0.4-0.4-0.7v0C51.5,49.5,51.9,49.1,52.3,49.1  z M49,60c0,0.8-0.4,1.3-1.1,1.3c-5.7,0.3-10.7,1.9-13.9,4.1c0.2-0.4,0.4-0.8,0.6-1.2c0,0,0-0.1,0.1-0.1c0.2-0.4,0.4-0.7,0.6-1.1  c0,0,0-0.1,0.1-0.1c1-1.5,2.1-2.9,3.2-4.1c0,0,0,0,0.1-0.1c0.3-0.3,0.6-0.5,0.8-0.8c0,0,0.1,0,0.1-0.1c0.3-0.3,0.6-0.5,0.9-0.8  c0,0,0,0,0,0c1-0.8,2-1.4,3.1-1.9c0,0,0,0,0,0c0.3-0.2,0.7-0.3,1-0.4c0,0,0.1,0,0.1,0c0.3-0.1,0.7-0.3,1-0.4c0,0,0,0,0,0  c1.1-0.3,2.3-0.6,3.5-0.6L49,60z M54.2,54.4C54.2,54.4,54.2,54.4,54.2,54.4c0.4,0.1,0.7,0.2,1.1,0.4c0,0,0.1,0,0.1,0  c0.3,0.1,0.7,0.3,1,0.4c0,0,0,0,0,0c1.1,0.5,2.1,1.2,3.1,1.9c0,0,0,0,0,0c0.3,0.2,0.6,0.5,0.9,0.8c0,0,0.1,0,0.1,0.1  c0.3,0.3,0.6,0.5,0.8,0.8c0,0,0,0,0.1,0.1c1.2,1.2,2.3,2.6,3.2,4.1c0,0,0,0.1,0.1,0.1c0.2,0.3,0.4,0.7,0.6,1.1c0,0,0,0.1,0.1,0.1  c0.2,0.4,0.4,0.8,0.6,1.2c0,0,0,0,0,0c-3.2-2.2-8.2-3.8-13.9-4.1c-0.8,0-1.1-0.5-1.1-1.3l-0.2-6.2C51.9,53.8,53.1,54,54.2,54.4z   M46.6,45.5c-0.8,0-1.7-0.2-2.4-0.5c-7.9-3.4-13.7-13.7-13.7-25.8h39c0,12.2-5.8,22.5-13.9,25.8c-0.7,0.3-1.4,0.4-2.1,0.4L46.6,45.5  z"/></svg>